<?xml version="1.0" encoding="utf-8"?>
<!-- Generator: Adobe Illustrator 26.0.1, SVG Export Plug-In . SVG Version: 6.00 Build 0)  -->
<svg version="1.1" id="Capa_1" xmlns="http://www.w3.org/2000/svg" xmlns:xlink="http://www.w3.org/1999/xlink" x="0px" y="0px"
	 viewBox="0 0 69.5 68.8" style="enable-background:new 0 0 69.5 68.8;" xml:space="preserve">
<style type="text/css">
	.st0{fill:none;stroke:#616161;stroke-width:2.83;stroke-linecap:round;stroke-linejoin:round;}
	.st1{fill:none;}
	.st2{fill:#00A6E2;}
</style>
<path class="st0" d="M38.2,49.2V64c0,2.1-1.7,3.8-3.8,3.8H5.2c-2.1,0-3.8-1.7-3.8-3.8V4.6c0-2.1,1.7-3.8,3.8-3.8h29.2
	c2.1,0,3.8,1.7,3.8,3.8V13"/>
<line class="st0" x1="1.4" y1="58.5" x2="38.2" y2="58.5"/>
<line class="st0" x1="17.7" y1="63.1" x2="22" y2="63.1"/>
<line class="st0" x1="15.4" y1="5.4" x2="23.9" y2="5.4"/>
<rect x="0.8" y="0.4" class="st1" width="67.9" height="67.9"/>
<path class="st0" d="M63.5,45.2H41l-7.3,7.4l-0.1-7.4H31c-2.9,0-5.2-2.3-5.2-5.2l0,0V18.5c0-2.9,2.3-5.2,5.2-5.2l0,0h32.5
	c2.8,0,5.2,2.3,5.2,5.1l0,0V40C68.7,42.9,66.4,45.2,63.5,45.2L63.5,45.2z"/>
<circle class="st2" cx="36.7" cy="29.6" r="2.4"/>
<circle class="st2" cx="47.3" cy="29.6" r="2.4"/>
<circle class="st2" cx="57.8" cy="29.6" r="2.4"/>
</svg>
