<?xml version="1.0" encoding="utf-8"?>
<!-- Generator: Adobe Illustrator 26.0.1, SVG Export Plug-In . SVG Version: 6.00 Build 0)  -->
<svg version="1.1" id="Capa_1" xmlns="http://www.w3.org/2000/svg" xmlns:xlink="http://www.w3.org/1999/xlink" x="0px" y="0px"
	 viewBox="0 0 69.5 68.8" style="enable-background:new 0 0 69.5 68.8;" xml:space="preserve">
<style type="text/css">
	.st0{fill:none;}
	.st1{fill:none;stroke:#616161;stroke-width:2.83;stroke-linecap:round;stroke-linejoin:round;}
	.st2{fill:none;stroke:#616161;stroke-width:2.81;stroke-linecap:round;stroke-linejoin:round;}
</style>
<rect x="0.8" y="0.4" class="st0" width="67.9" height="67.9"/>
<path class="st1" d="M53.5,24.9v11.6c0,10.2-8.3,18.5-18.5,18.6l0,0c-10.2,0-18.6-8.3-18.6-18.5l0,0V24.9"/>
<polyline class="st1" points="1.6,64.1 27,57 27,53.4 "/>
<polyline class="st1" points="67.9,64.1 42.5,57 42.5,53.7 "/>
<polyline class="st1" points="27,57.5 35,67.3 42.5,57.4 "/>
<path class="st2" d="M55.1,60.2c3.7-5.5,5.1-12.7,5.8-19.1c1-9.3,1.6-19.5-3.5-27.9c-7-11.4-23-14.8-34.8-8.9
	c-4.1,2-7.5,5.1-9.9,8.9c-5.1,8.3-4.5,18.6-3.5,27.9c0.7,6.4,2.1,13.6,5.8,19.1"/>
<path class="st1" d="M40.9,13.2c-0.2,1.6-0.8,3.1-1.8,4.4c-4.4,5.8-13.3,5.6-19.8,6.5c-2.4,0.3-5,0.6-7.1,1.8
	c-2.2,1.3-3.6,3.7-3.5,6.3c0,0-0.1,6.8,7.5,7.1"/>
<line class="st1" x1="26.2" y1="27.8" x2="26.2" y2="30.7"/>
<line class="st1" x1="43.8" y1="27.8" x2="43.8" y2="30.7"/>
<circle class="st1" cx="37.3" cy="45.4" r="2.6"/>
<path class="st1" d="M39.9,45.4c0,0,10.2,1,13.4-6.6"/>
<path class="st1" d="M28.4,42.6c1.1,1,3.6,3,6.3,2.8"/>
<path class="st1" d="M40.9,13.1c0,0-1.1,8.8,8.9,11c2.4,0.5,5,0.6,7.2,1.8c2.2,1.3,3.6,3.7,3.5,6.3c0,0,0.7,6.6-6.9,7"/>
</svg>
