<?xml version="1.0" encoding="utf-8"?>
<!-- Generator: Adobe Illustrator 26.0.1, SVG Export Plug-In . SVG Version: 6.00 Build 0)  -->
<svg version="1.1" id="Capa_1" xmlns="http://www.w3.org/2000/svg" xmlns:xlink="http://www.w3.org/1999/xlink" x="0px" y="0px"
	 viewBox="0 0 69.5 68.8" style="enable-background:new 0 0 69.5 68.8;" xml:space="preserve">
<style type="text/css">
	.st0{fill:#616161;}
	.st1{fill:none;}
	.st2{fill:none;stroke:#616161;stroke-width:2.83;stroke-linecap:round;stroke-linejoin:round;}
	.st3{fill:none;stroke:#00A6E2;stroke-width:3.32;stroke-linecap:round;stroke-linejoin:round;}
	.st4{fill:none;stroke:#616161;stroke-width:3.96;stroke-miterlimit:10;}
</style>
<circle class="st0" cx="27.8" cy="33.1" r="2.3"/>
<rect x="0.9" y="0.7" class="st1" width="67.9" height="67.9"/>
<path class="st2" d="M64.5,57.1H53.9v10.2l-9.6-10.2h-7c-2,0-3.6-1.6-3.6-3.6l0,0V37c0-2,1.6-3.6,3.6-3.6l0,0h27.2
	c2,0,3.6,1.6,3.6,3.6v16.5C68.1,55.5,66.5,57.1,64.5,57.1z"/>
<polyline class="st3" points="45.3,45 49.2,50.4 60,39.8 "/>
<path class="st4" d="M21.8,14.8c0-1.3,0-5.8,5.7-5.8c1.6-0.1,3.1,0.3,4.3,1.3c2.3,2.2,1.8,6,0.2,8.5c-0.5,0.7-1,1.3-1.7,1.9
	c-0.9,0.8-1.6,1.7-2.1,2.7c-0.3,1.1-0.4,2.2-0.3,3.4"/>
<path class="st2" d="M33.3,41.8H22.9l-11.5,8.5l-0.1-8.5H8c-3.6,0-6.5-2.9-6.6-6.5V8c0-3.6,2.9-6.6,6.5-6.6l0,0h39.3
	c3.6,0,6.6,2.9,6.6,6.5l0,0v24.7"/>
</svg>
