<?xml version="1.0" encoding="utf-8"?>
<!-- Generator: Adobe Illustrator 26.0.1, SVG Export Plug-In . SVG Version: 6.00 Build 0)  -->
<svg version="1.1" id="Capa_1" xmlns="http://www.w3.org/2000/svg" xmlns:xlink="http://www.w3.org/1999/xlink" x="0px" y="0px"
	 viewBox="0 0 69.5 68.8" style="enable-background:new 0 0 69.5 68.8;" xml:space="preserve">
<style type="text/css">
	.st0{fill:none;stroke:#616161;stroke-width:2.83;stroke-linecap:round;stroke-linejoin:round;}
	.st1{fill:none;stroke:#00A6E2;stroke-width:3.69;stroke-linecap:round;stroke-linejoin:round;}
</style>
<g>
	<path class="st0" d="M34.8,25.7h29.1l0,0c2.3,0,4.2,1.9,4.2,4.2v33.4l0,0c0,2.3-1.9,4.2-4.2,4.2H12.4c-2.3,0-4.2-1.9-4.2-4.2V32.5"
		/>
	<path class="st0" d="M17.4,35.9l16.2,16.9l0.1,0.1c2.2,2.2,5.7,2.2,7.9,0l22.5-22.4"/>
	<line class="st0" x1="63.8" y1="62.5" x2="48.3" y2="46.6"/>
	<line class="st0" x1="12.4" y1="62.5" x2="27.5" y2="47.1"/>
</g>
<circle class="st0" cx="18.6" cy="18.6" r="17.2"/>
<polyline class="st1" points="10.1,15 18.9,23.1 37.4,4.7 "/>
</svg>
