<?xml version="1.0" encoding="utf-8"?>
<!-- Generator: Adobe Illustrator 26.0.1, SVG Export Plug-In . SVG Version: 6.00 Build 0)  -->
<svg version="1.1" id="Capa_1" xmlns="http://www.w3.org/2000/svg" xmlns:xlink="http://www.w3.org/1999/xlink" x="0px" y="0px"
	 viewBox="0 0 72.2 71.6" style="enable-background:new 0 0 72.2 71.6;" xml:space="preserve">
<style type="text/css">
	.st0{fill:none;stroke:#059DC6;stroke-width:2;stroke-linecap:round;stroke-linejoin:round;}
	.st1{fill:none;stroke:#020202;stroke-width:2;stroke-linecap:round;stroke-linejoin:round;}
</style>
<polyline class="st0" points="30,12.7 34.4,17.2 42.4,8.3 "/>
<circle class="st1" cx="36.2" cy="12.7" r="11.6"/>
<path class="st1" d="M24.6,33.3c-0.8-0.2-3-0.6-3.7,1.6c-0.2,1,0.1,2.1,0.8,2.9c2.5,2.1,8.4,3.5,8.4,3.5c1.2,0.4,2.4-0.2,2.9-1.3
	c0.4-1.2-0.1-2.5-1.1-3.2C31.9,36.7,27.4,33.9,24.6,33.3z"/>
<path class="st1" d="M36,36.6c2.9-0.3,5.7-0.8,8.4-1.6c0,0,4.3-1.6,5.7,0.4c0.7,1.5,0.2,3.3-1.3,4c0,0,0,0-0.1,0l-5.8,2.1"/>
<path class="st1" d="M47.5,39.9c0,0,2.5-0.5,3.1,1.4c0.3,1.4-0.5,2.8-1.8,3.2L46,45.8"/>
<path class="st1" d="M48.5,44.7c1.1-0.7,2.6-0.3,3.3,0.8c0.6,1.3,0.1,2.9-1.1,3.7l-2.3,1.5"/>
<path class="st1" d="M49.8,49.7c0,0,1.8-1,2.7,0.4c0.2,0.3,0.2,0.7,0.2,1c-0.1,0.9-0.6,1.7-1.3,2.3c-0.8,0.6-1.6,1.2-2.5,1.6
	l-2.6,1.3c-1.5,0.8-3.1,1.6-4.6,2.4c-1.7,0.9-6.3,3.2-8.4,4.5c-4.4,2.6-11.4,6.4-12.8,7.3"/>
<line class="st1" x1="36.6" y1="61.4" x2="54.2" y2="70.5"/>
<line class="st1" x1="51.1" y1="53.6" x2="70.6" y2="63.2"/>
<line class="st1" x1="1.7" y1="63.2" x2="19.7" y2="53.6"/>
<path class="st1" d="M45.9,34.6c-0.6-1.9-1.3-3.8-2.1-5.6c-0.2-0.4-0.7-0.6-1.1-0.5c-2.1,0.4-7.9,1.4-11.1,1.7
	c-0.2,1.8,1.2,3.4,3,3.5c0.2,0,0.3,0,0.5,0l3.7,0.1V36"/>
<path class="st1" d="M26.3,33.8l2.6-5.8c0,0,0.2-0.6,1.1-0.5c2.2,0.3,9.5,1,11.3,1.1"/>
<path class="st1" d="M20,49.1c-1,0.5-1.5,1.5-1.3,2.6c0.3,1.5,1.8,2.3,3.1,2.6c2.7,0.7,7.8,0.7,6.8-3.1"/>
<path class="st1" d="M20.5,43.4c-2.2,0.7-2.1,3.6-1,5c1.1,1.1,2.5,1.9,4,2.2c2.1,0.5,5.7,1,7.2-1.2c0.7-0.9,0.7-2.2,0.1-3.1"/>
<path class="st1" d="M22.5,38.3c-0.8-0.2-1.6-0.1-2.3,0.2c-1.3,0.7-1.2,2.5-0.5,3.6c1,1.4,2.3,2.6,3.9,3.2c2.1,0.9,5.2,1.7,7.4,0.5
	c0.8-0.4,1.3-1.1,1.4-2c0.1-1.2-0.7-2.3-1.8-2.7"/>
</svg>
