<?xml version="1.0" encoding="utf-8"?>
<!-- Generator: Adobe Illustrator 26.0.1, SVG Export Plug-In . SVG Version: 6.00 Build 0)  -->
<svg version="1.1" id="Capa_1" xmlns="http://www.w3.org/2000/svg" xmlns:xlink="http://www.w3.org/1999/xlink" x="0px" y="0px"
	 viewBox="0 0 68.2 70.6" style="enable-background:new 0 0 68.2 70.6;" xml:space="preserve">
<style type="text/css">
	.st0{fill:none;stroke:#616161;stroke-width:2.27;stroke-linecap:round;stroke-linejoin:round;}
	.st1{fill:#C19C5B;}
</style>
<path class="st0" d="M5.7,1.1h53.7c2.5,0,4.6,2.1,4.6,4.6v17.4c0,2.5-2.1,4.6-4.6,4.6H5.7c-2.5,0-4.6-2.1-4.6-4.6V5.7
	C1.1,3.2,3.2,1.1,5.7,1.1z"/>
<polygon class="st0" points="46.9,33.6 45.3,61.5 53.2,57.2 58.2,69.4 63,67.5 58,55.3 67.1,53.2 "/>
<line class="st0" x1="37.1" y1="39.7" x2="42.2" y2="37.5"/>
<line class="st0" x1="43.6" y1="24.8" x2="45.4" y2="29.9"/>
<line class="st0" x1="50" y1="29.9" x2="52.2" y2="24.8"/>
<line class="st0" x1="37.1" y1="30.8" x2="42.2" y2="33.1"/>
<line class="st0" x1="53.1" y1="33.4" x2="58.4" y2="31.2"/>
<path class="st1" d="M23.8,9.4l-3.5,9.8h-2.7l-2.2-6.1l-2.3,6.1h-2.7L6.8,9.4h2.7l2.3,6.6l2.4-6.6h2.4L19,16l2.4-6.6L23.8,9.4z"/>
<path class="st1" d="M40.6,9.4l-3.5,9.8h-2.7l-2.2-6.1l-2.3,6.1h-2.7l-3.5-9.8h2.7l2.3,6.6L31,9.4h2.4l2.3,6.6l2.4-6.6L40.6,9.4z"/>
<path class="st1" d="M57.4,9.4l-3.5,9.8h-2.7L49,13.1l-2.3,6.1H44l-3.6-9.8h2.7l2.3,6.6l2.4-6.6h2.4l2.3,6.6l2.4-6.6L57.4,9.4z"/>
</svg>
