<svg id="Capa_1" data-name="Capa 1" xmlns="http://www.w3.org/2000/svg" viewBox="0 0 74.05 75.1"><defs><style>.cls-1,.cls-2{fill:none;stroke-linecap:round;stroke-linejoin:round;}.cls-1{stroke:#b4b4b4;stroke-width:2.27px;}.cls-2{stroke:#3a70b6;stroke-width:1.7px;}</style></defs><polygon class="cls-1" points="54.86 48.15 63.89 60.08 72.92 48.15 68.38 48.15 68.38 1.13 59.4 1.13 59.4 48.15 54.86 48.15"/><path class="cls-1" d="M30.12,68.73a14.52,14.52,0,0,1-6.24,1.36H14.72A13.26,13.26,0,0,1,5,66.21c-5.71-6-4.51-15.76-.18-22.16a23.77,23.77,0,0,1,5.8-5.91"/><polygon class="cls-1" points="35.93 33.89 44.96 45.82 53.99 33.89 49.45 33.89 49.45 13.73 40.47 13.73 40.47 33.89 35.93 33.89"/><path class="cls-1" d="M27.93,38.09a24,24,0,0,1,5.85,6,21.78,21.78,0,0,1,3,6.49"/><rect class="cls-1" x="7.79" y="32.59" width="23.03" height="5.3" rx="2.65"/><path class="cls-1" d="M25.71,32.59l4.36-5.28a3.3,3.3,0,0,0,.74-2.07h0A3.26,3.26,0,0,0,27.56,22H11.05A3.25,3.25,0,0,0,7.8,25.24h0a3.24,3.24,0,0,0,.74,2.07l4.35,5.28"/><path class="cls-2" d="M19.23,61.68s0-15,0-15.13"/><path class="cls-2" d="M23.26,51a2.3,2.3,0,0,0-2.3-2.3H17.77a2.55,2.55,0,0,0-2.54,2.56h0a2.55,2.55,0,0,0,2.56,2.55l2.91,0a2.55,2.55,0,0,1,2.56,2.55h0a2.55,2.55,0,0,1-2.55,2.55H17.53a2.29,2.29,0,0,1-2.3-2.29"/><circle class="cls-1" cx="39.95" cy="62.11" r="11.86"/><path class="cls-2" d="M39.94,68.65s0-13,0-13.09"/><path class="cls-2" d="M43.42,59.38a2,2,0,0,0-2-2H38.68a2.21,2.21,0,0,0-2.21,2.21h0a2.22,2.22,0,0,0,2.22,2.21l2.52,0A2.21,2.21,0,0,1,43.42,64h0a2.21,2.21,0,0,1-2.2,2.21H38.46a2,2,0,0,1-2-2"/></svg>