<svg id="Capa_1" data-name="Capa 1" xmlns="http://www.w3.org/2000/svg" viewBox="0 0 77.93 66.71"><defs><style>.cls-1{fill:none;stroke:#616161;stroke-linecap:round;stroke-linejoin:round;stroke-width:2.27px;}.cls-2{fill:#c19c5b;}</style></defs><path class="cls-1" d="M42.86,46.69V62.8a2.77,2.77,0,0,1-2.77,2.77H3.91A2.78,2.78,0,0,1,1.13,62.8V33.09a2.78,2.78,0,0,1,2.78-2.77H20.68"/><path class="cls-1" d="M6.09,30.32V17.05A15.91,15.91,0,0,1,22,1.13h0A15.92,15.92,0,0,1,37.91,17.05v3"/><path class="cls-1" d="M72.44,46.69H42.86l-10,9.38-.13-9.38H25a4.36,4.36,0,0,1-4.35-4.36v-18A4.35,4.35,0,0,1,25,20H72.44a4.36,4.36,0,0,1,4.36,4.35v18A4.36,4.36,0,0,1,72.44,46.69Z"/><path class="cls-2" d="M38.76,30.17l-2.91,1.25V28.07a1.61,1.61,0,1,0-3.21,0v3.34l-2.77-1.23a1.6,1.6,0,1,0-1.3,2.93l3.18,1.42-2.14,2.8a1.61,1.61,0,1,0,2.55,2l2.1-2.76,2.06,2.75a1.61,1.61,0,0,0,1.28.64,1.59,1.59,0,0,0,1-.32,1.61,1.61,0,0,0,.32-2.25l-2.12-2.82L40,33.12a1.61,1.61,0,1,0-1.27-2.95Zm14.43,0-2.91,1.25V28.07a1.61,1.61,0,1,0-3.21,0v3.34L44.3,30.18A1.6,1.6,0,1,0,43,33.11l3.18,1.42L44,37.33a1.61,1.61,0,1,0,2.55,2l2.11-2.76,2,2.75a1.61,1.61,0,0,0,1.29.64,1.58,1.58,0,0,0,1-.32,1.61,1.61,0,0,0,.32-2.25L51.2,34.52l3.26-1.4a1.61,1.61,0,1,0-1.27-2.95ZM69.73,31a1.61,1.61,0,0,0-2.11-.84l-2.91,1.25V28.07a1.61,1.61,0,1,0-3.21,0v3.34l-2.77-1.23a1.6,1.6,0,1,0-1.3,2.93l3.18,1.42-2.14,2.8a1.61,1.61,0,1,0,2.55,2l2.11-2.76,2.05,2.75a1.61,1.61,0,0,0,1.29.64,1.58,1.58,0,0,0,1-.32,1.61,1.61,0,0,0,.32-2.25l-2.12-2.82,3.26-1.4A1.61,1.61,0,0,0,69.73,31Z"/></svg>