<svg id="Capa_1" data-name="Capa 1" xmlns="http://www.w3.org/2000/svg" viewBox="0 0 74.05 75.1"><defs><style>.cls-1,.cls-2{fill:none;stroke-linecap:round;stroke-linejoin:round;}.cls-1{stroke:#b4b4b4;stroke-width:2.27px;}.cls-2{stroke:#3a70b6;stroke-width:1.84px;}</style></defs><path class="cls-1" d="M25.47,36.42c-.79-.15-3-.61-3.73,1.58a3.2,3.2,0,0,0,.84,2.88C25.09,43,31,44.36,31,44.36a2.36,2.36,0,0,0,2.92-1.28,2.71,2.71,0,0,0-1.15-3.21S28.3,37,25.47,36.42Z"/><path class="cls-1" d="M36.88,39.79a43,43,0,0,0,8.47-1.61s4.32-1.64,5.66.4a3,3,0,0,1-1.38,4.06l-5.85,2.07"/><path class="cls-1" d="M48.42,43.07s2.54-.53,3.09,1.41a2.76,2.76,0,0,1-1.84,3.2L47,49"/><path class="cls-1" d="M49.41,47.81a2.42,2.42,0,0,1,3.27.79,3,3,0,0,1-1.1,3.7l-2.31,1.52"/><path class="cls-1" d="M50.76,52.84s1.81-1,2.66.42a1.68,1.68,0,0,1,.16,1,3.57,3.57,0,0,1-1.33,2.32,12.13,12.13,0,0,1-2.48,1.58l-2.56,1.37c-1.51.8-3,1.6-4.56,2.37-1.73.89-6.26,3.22-8.41,4.48C29.84,68.94,22.89,73,21.47,74"/><line class="cls-1" x1="37.53" y1="64.53" x2="55.1" y2="73.97"/><line class="cls-1" x1="51.98" y1="56.77" x2="71.48" y2="66.35"/><line class="cls-1" x1="2.57" y1="66.35" x2="20.57" y2="56.77"/><path class="cls-1" d="M46.84,37.76c0-.14-1.43-4.13-2.16-5.64a1,1,0,0,0-1.13-.45c-2.1.36-7.94,1.44-11.11,1.68a3.28,3.28,0,0,0,3.47,3.59l3.73.06v2.14"/><path class="cls-1" d="M27.2,37l2.58-5.75s.18-.64,1.06-.46c2.22.27,9.5,1,11.33,1.15"/><path class="cls-1" d="M20.89,52.24a2.4,2.4,0,0,0-1.33,2.6c.26,1.46,1.76,2.3,3.06,2.64,2.67.7,7.79.65,6.81-3.06"/><path class="cls-1" d="M21.39,46.54c-2.19.73-2.07,3.61-.95,5a7.13,7.13,0,0,0,4,2.2c2.15.51,5.71,1,7.18-1.16a2.69,2.69,0,0,0,.09-3.12"/><path class="cls-1" d="M23.4,41.47a3,3,0,0,0-2.28.25c-1.27.72-1.18,2.48-.49,3.58a8.66,8.66,0,0,0,3.91,3.24c2.12.92,5.22,1.73,7.4.55a2.5,2.5,0,0,0,1.37-2,2.66,2.66,0,0,0-1.82-2.68"/><polyline class="cls-2" points="32.11 13.07 35.67 16.66 42.17 9.47"/><circle class="cls-1" cx="37.14" cy="13.07" r="11.93"/></svg>