<?xml version="1.0" encoding="utf-8"?>
<!-- Generator: Adobe Illustrator 26.0.1, SVG Export Plug-In . SVG Version: 6.00 Build 0)  -->
<svg version="1.1" id="Capa_1" xmlns="http://www.w3.org/2000/svg" xmlns:xlink="http://www.w3.org/1999/xlink" x="0px" y="0px"
	 viewBox="0 0 75.6 65.7" style="enable-background:new 0 0 75.6 65.7;" xml:space="preserve">
<style type="text/css">
	.st0{fill:none;stroke:#616161;stroke-width:2.27;stroke-linecap:round;stroke-linejoin:round;}
	.st1{fill:none;stroke:#C19C5B;stroke-width:5.67;stroke-linecap:round;stroke-linejoin:round;}
	.st2{fill:#C19C5B;}
</style>
<path class="st0" d="M35.1,18.9c-2-0.9-4.2-1.4-6.4-1.4l0,0c-8.5,0-15.5,6.9-15.5,15.5c0,0,0,0,0,0v13c0,2.7-2.2,5-4.9,5
	c0,0,0,0-0.1,0l0,0c-0.8,0-1.4,0.6-1.4,1.4v3.4c0,1.1,0.9,2.1,2.1,2.1h39.6c1.1,0,2.1-0.9,2.1-2.1v-3.4c0-0.8-0.7-1.4-1.4-1.4l0,0
	c-2.8,0-5-2.2-5-5v-8.3"/>
<path class="st0" d="M35.5,57.8c0,3.7-3,6.8-6.8,6.8s-6.8-3-6.8-6.8l0,0"/>
<path class="st0" d="M28.7,23.8c0,0-9,0.5-8.7,10.5"/>
<path class="st0" d="M25.4,17.4v-3.7c0-1.4,1.1-2.6,2.6-2.6c0,0,0,0,0,0h1.4c1.4,0,2.6,1.1,2.6,2.5c0,0,0,0,0,0.1v3.7"/>
<circle class="st0" cx="54.8" cy="20.8" r="19.7"/>
<line class="st1" x1="54.8" y1="11.3" x2="54.8" y2="22.7"/>
<circle class="st2" cx="54.8" cy="31.6" r="3.1"/>
<line class="st0" x1="9.6" y1="22.9" x2="1.1" y2="22.9"/>
<line class="st0" x1="17.3" y1="15.3" x2="17.3" y2="6.9"/>
<line class="st0" x1="11.1" y1="17.1" x2="5.9" y2="11.8"/>
</svg>
