<?xml version="1.0" encoding="utf-8"?>
<!-- Generator: Adobe Illustrator 26.0.1, SVG Export Plug-In . SVG Version: 6.00 Build 0)  -->
<svg version="1.1" id="Capa_1" xmlns="http://www.w3.org/2000/svg" xmlns:xlink="http://www.w3.org/1999/xlink" x="0px" y="0px"
	 viewBox="0 0 72.2 71.6" style="enable-background:new 0 0 72.2 71.6;" xml:space="preserve">
<style type="text/css">
	.st0{fill:none;stroke:#020202;stroke-width:2;stroke-linecap:round;stroke-linejoin:round;}
	.st1{fill:none;stroke:#059DC6;stroke-width:2;stroke-linecap:round;stroke-linejoin:round;}
</style>
<path class="st0" d="M29.5,65.9c-1.8,0.7-3.6,1.1-5.5,1.1h-9.2C11.1,67,7.6,65.6,5.1,63c-5.7-6-4.5-15.8-0.2-22.2
	c1.6-2.3,3.5-4.3,5.8-5.9"/>
<circle class="st0" cx="39.8" cy="58.8" r="11.9"/>
<polygon class="st0" points="53.2,46.6 62.2,58.6 71.2,46.6 66.7,46.6 66.7,1.3 57.7,1.3 57.7,46.6 "/>
<polygon class="st0" points="34.1,30.7 43.2,42.7 51.5,30.7 47.7,30.7 47.7,10.6 38.7,10.6 38.7,30.7 "/>
<path class="st0" d="M28,34.9c2.3,1.6,4.3,3.7,5.9,6c1.2,1.9,2.2,3.9,2.8,6.1"/>
<path class="st0" d="M10.5,29.4h17.7c1.5,0,2.6,1.2,2.6,2.7v0c0,1.5-1.2,2.7-2.6,2.7H10.5c-1.5,0-2.7-1.2-2.7-2.7v0
	C7.8,30.6,9,29.4,10.5,29.4z"/>
<path class="st0" d="M25.8,29.4l4.4-5.3c0.5-0.6,0.7-1.3,0.7-2.1l0,0c0-1.8-1.5-3.2-3.2-3.2H11.1c-1.8,0-3.2,1.5-3.2,3.2l0,0
	c0,0.8,0.3,1.5,0.7,2.1l4.4,5.3"/>
<path class="st1" d="M43,55.6c-0.2-1.6-1.6-2.9-3.3-2.7c0,0,0,0,0,0c-0.8,0-1.6,0.3-2.2,0.8c-0.7,0.7-1,1.8-0.7,2.7
	c0.2,0.6,0.6,1.1,1.2,1.4c1,0.5,2.1,0.4,3.1,0.8c0.7,0.2,1.3,0.7,1.8,1.3c0.8,1.4,0.4,3.1-1,3.9c-0.3,0.2-0.6,0.3-0.9,0.4
	c-0.4,0.1-0.9,0.2-1.3,0.1c-1.7,0-3.1-1.2-3.4-2.8"/>
<line class="st1" x1="39.8" y1="64.7" x2="39.8" y2="66.3"/>
<line class="st1" x1="39.8" y1="51.2" x2="39.8" y2="52.8"/>
<path class="st1" d="M23.8,47.4c-0.2-2.2-2.1-3.8-4.3-3.6c0,0-0.1,0-0.1,0c-1.1,0.1-2.1,0.5-3,1.1c-1.4,1.3-1.5,3.5-0.2,4.9
	c0.2,0.3,0.5,0.5,0.8,0.6c1.3,0.7,2.9,0.6,4.2,1.1c1,0.3,1.8,1,2.5,1.8c1.5,2.3-0.1,5.1-2.6,5.8c-0.6,0.1-1.2,0.2-1.8,0.2
	c-2.2,0-4.2-1.6-4.6-3.8"/>
<line class="st1" x1="19.3" y1="59.5" x2="19.3" y2="61.7"/>
<line class="st1" x1="19.3" y1="41.4" x2="19.3" y2="43.5"/>
</svg>
