<?xml version="1.0" encoding="utf-8"?>
<!-- Generator: Adobe Illustrator 26.0.1, SVG Export Plug-In . SVG Version: 6.00 Build 0)  -->
<svg version="1.1" id="Capa_1" xmlns="http://www.w3.org/2000/svg" xmlns:xlink="http://www.w3.org/1999/xlink" x="0px" y="0px"
	 viewBox="0 0 72.2 71.6" style="enable-background:new 0 0 72.2 71.6;" xml:space="preserve">
<style type="text/css">
	.st0{fill:none;stroke:#020202;stroke-width:2;stroke-linecap:round;stroke-linejoin:round;}
	.st1{fill:none;stroke:#059DC6;stroke-width:2;stroke-linecap:round;stroke-linejoin:round;}
</style>
<path class="st0" d="M68.5,15.6H52.6L47,20.8l-0.1-5.2h-5.8c-1.3,0-2.4-1.1-2.4-2.4c0,0,0,0,0,0v-10c0-1.3,1.1-2.4,2.4-2.4h27.3
	c1.3,0,2.4,1.1,2.4,2.4c0,0,0,0,0,0v10C70.9,14.5,69.8,15.6,68.5,15.6z"/>
<line class="st1" x1="46.2" y1="5.2" x2="46.2" y2="8.1"/>
<line class="st1" x1="44.5" y1="10.5" x2="46.2" y2="8.1"/>
<line class="st1" x1="47.9" y1="10.5" x2="46.2" y2="8.1"/>
<line class="st1" x1="48.8" y1="7.1" x2="46.2" y2="8.1"/>
<line class="st1" x1="43.7" y1="7.1" x2="46.2" y2="8.1"/>
<line class="st1" x1="54.5" y1="5.2" x2="54.5" y2="8.1"/>
<line class="st1" x1="52.8" y1="10.5" x2="54.5" y2="8.1"/>
<line class="st1" x1="56.2" y1="10.5" x2="54.5" y2="8.1"/>
<line class="st1" x1="57.1" y1="7.1" x2="54.5" y2="8.1"/>
<line class="st1" x1="52" y1="7.1" x2="54.5" y2="8.1"/>
<line class="st1" x1="62.8" y1="5.2" x2="62.8" y2="8.1"/>
<line class="st1" x1="61.1" y1="10.5" x2="62.8" y2="8.1"/>
<line class="st1" x1="64.5" y1="10.5" x2="62.8" y2="8.1"/>
<line class="st1" x1="65.4" y1="7.1" x2="62.8" y2="8.1"/>
<line class="st1" x1="60.2" y1="7.1" x2="62.8" y2="8.1"/>
<path class="st0" d="M46.3,70.8H5c-2.3,0-4.2-1.9-4.2-4.2V38.2C0.8,35.9,2.7,34,5,34c0,0,0,0,0,0h34.1"/>
<path class="st0" d="M11.2,34v-9.6c0-6.8,5.5-12.4,12.4-12.4l0,0c6.8,0,12.4,5.5,12.4,12.3c0,0,0,0,0,0V34"/>
<circle class="st0" cx="50.2" cy="37.3" r="7.1"/>
<polygon class="st0" points="67.1,70.8 46.4,70.8 50.7,53.2 71.4,53.2 "/>
<path class="st0" d="M47.3,66.1h-4.9c-2.8,0-5-2.2-5-5v-8.4c0-2.8,2.2-5,5-5h14.9c2.4,0,4.4,1.7,4.9,4"/>
<path class="st0" d="M44.3,54.6v3.6c0,0.7,0.6,1.3,1.3,1.3c0,0,0,0,0,0h3.4"/>
<path class="st1" d="M28.1,50c0-2.5-2-4.6-4.6-4.6S19,47.4,19,50c0,1.9,1.1,3.6,2.9,4.3V58c0.1,0.9,0.9,1.6,1.8,1.6
	c0.8-0.1,1.5-0.7,1.6-1.6v-3.8C27,53.5,28.1,51.8,28.1,50z"/>
</svg>
