<?xml version="1.0" encoding="utf-8"?>
<!-- Generator: Adobe Illustrator 26.0.1, SVG Export Plug-In . SVG Version: 6.00 Build 0)  -->
<svg version="1.1" id="Capa_1" xmlns="http://www.w3.org/2000/svg" xmlns:xlink="http://www.w3.org/1999/xlink" x="0px" y="0px"
	 viewBox="0 0 72.2 71.6" style="enable-background:new 0 0 72.2 71.6;" xml:space="preserve">
<style type="text/css">
	.st0{fill:none;stroke:#020202;stroke-width:2;stroke-linecap:round;stroke-linejoin:round;}
	.st1{fill:none;stroke:#059DC6;stroke-width:2;stroke-linecap:round;stroke-linejoin:round;}
</style>
<path class="st0" d="M23.7,24.1h-9.2v6.4l-6.9-6.4H4.1c-1.4,0-2.6-1.2-2.6-2.6V3.4c0-1.4,1.1-2.6,2.6-2.6c0,0,0,0,0,0h19.6
	c1.4,0,2.6,1.1,2.6,2.6c0,0,0,0,0,0v18.1C26.3,22.9,25.1,24.1,23.7,24.1z"/>
<polyline class="st1" points="55.4,19.4 58.7,22.5 65.1,16.3 "/>
<path class="st0" d="M68.2,26.8h-6.7l-4.4,4.4v-4.4h-4c-1.4,0-2.5-1.1-2.5-2.5V13.8c0-1.4,1.1-2.5,2.5-2.5c0,0,0,0,0,0h15.1
	c1.4,0,2.5,1.1,2.5,2.5c0,0,0,0,0,0v10.5C70.7,25.7,69.6,26.8,68.2,26.8L68.2,26.8z"/>
<path class="st0" d="M21,39.3c-1.9-1.9-1.9-4.9,0-6.8c0.9-0.9,2.1-1.4,3.4-1.4c1.3,0,2.5,0.5,3.4,1.4"/>
<path class="st0" d="M21,43.7h-1.2c-2.8,0-5,2.2-5,5v8.5c0,1.1,0.9,2,2,2l0,0c1.1,0,2-0.9,2-2v-8.8"/>
<path class="st0" d="M18.8,56.8V69c0,1,0.8,1.9,1.9,1.9c0,0,0,0,0,0l0,0c1,0,1.9-0.8,1.9-1.8c0,0,0,0,0,0v-9.3c0-1,0.8-1.8,1.8-1.8
	l0,0"/>
<circle class="st0" cx="36.4" cy="25.5" r="6.1"/>
<path class="st0" d="M29.5,41.2v11.2c0,1.4-1.1,2.6-2.6,2.6c0,0,0,0,0,0l0,0c-1.4,0-2.6-1.1-2.6-2.6c0,0,0,0,0,0V41.6
	c0-3.5,2.8-6.3,6.3-6.3h11.7c3.5,0,6.3,2.8,6.3,6.3c0,0,0,0,0,0v10.7c0,1.4-1.1,2.6-2.6,2.6c0,0,0,0,0,0l0,0c-1.4,0-2.6-1.2-2.6-2.6
	c0,0,0,0,0,0V41.2"/>
<path class="st0" d="M43.5,53v15.4c0,1.3-1.1,2.4-2.4,2.4l0,0l0,0c-1.3,0-2.4-1.1-2.3-2.4V56.7c0-1.3-1-2.3-2.3-2.3c0,0,0,0,0,0l0,0
	c-1.3,0-2.3,1-2.3,2.3c0,0,0,0,0,0v11.8c0,1.3-1.1,2.4-2.4,2.4l0,0c-1.3,0-2.4-1.1-2.4-2.4l0,0v-15"/>
<path class="st0" d="M51.5,39.3c1.8-1.9,1.7-5-0.2-6.8c-1.8-1.7-4.7-1.7-6.5,0"/>
<path class="st0" d="M51.6,43.7h1.2c2.8,0,5,2.2,5,5v8.5c0,1.1-0.9,2-2,2l0,0c-1.1,0-2-0.9-2-2v-8.8"/>
<path class="st0" d="M53.8,56.8V69c0,1-0.8,1.9-1.8,1.9c0,0,0,0,0,0l0,0c-1,0-1.9-0.8-1.9-1.9l0,0v-9.3c0-1-0.8-1.8-1.8-1.8l0,0"/>
<path class="st1" d="M16.7,8.9c-0.2-1.6-1.6-2.9-3.3-2.7c0,0,0,0,0,0c-0.8,0-1.6,0.3-2.3,0.8c-1,1-1.1,2.6-0.1,3.6
	c0.2,0.2,0.4,0.4,0.6,0.5c0.9,0.6,2.1,0.4,3.1,0.8c0.7,0.2,1.4,0.7,1.8,1.3c0.8,1.4,0.3,3.1-1,4c-0.3,0.2-0.6,0.3-0.9,0.3
	c-0.4,0.1-0.9,0.1-1.3,0.1c-1.7,0-3.1-1.2-3.4-2.8"/>
<line class="st1" x1="13.4" y1="17.9" x2="13.4" y2="19.5"/>
<line class="st1" x1="13.4" y1="4.5" x2="13.4" y2="6"/>
</svg>
