<?xml version="1.0" encoding="utf-8"?>
<!-- Generator: Adobe Illustrator 26.0.1, SVG Export Plug-In . SVG Version: 6.00 Build 0)  -->
<svg version="1.1" id="Capa_1" xmlns="http://www.w3.org/2000/svg" xmlns:xlink="http://www.w3.org/1999/xlink" x="0px" y="0px"
	 viewBox="0 0 87.5 69.3" style="enable-background:new 0 0 87.5 69.3;" xml:space="preserve">
<style type="text/css">
	.st0{fill:none;stroke:#616161;stroke-width:2.27;stroke-linecap:round;stroke-linejoin:round;}
	.st1{fill:none;stroke:#C19C5B;stroke-width:5.67;stroke-linecap:round;stroke-linejoin:round;}
</style>
<path class="st0" d="M59.2,10h15.7c2.7,0,4.9,2.2,4.9,4.9c0,0,0,0,0,0v42.3"/>
<path class="st0" d="M7.7,57.3V14.9c0-2.7,2.2-4.9,4.9-4.9h15.7"/>
<path class="st0" d="M51,58.3L51,58.3c0,1.8-1.5,3.3-3.3,3.3h0h-7.9c-1.8,0-3.3-1.5-3.3-3.3v0l0,0c0-0.6-0.4-1-1-1H1.1v3.6
	c0,4,3.3,7.3,7.3,7.3h0h70.7c4,0,7.3-3.3,7.3-7.3v-3.6H52C51.4,57.3,51,57.7,51,58.3C51,58.3,51,58.3,51,58.3z"/>
<line class="st0" x1="29.1" y1="42.1" x2="58.5" y2="42.1"/>
<line class="st0" x1="29.1" y1="48" x2="58.5" y2="48"/>
<polygon class="st0" points="58.8,22.9 63.7,35.7 65.8,30.2 70.8,27.8 "/>
<line class="st0" x1="65.8" y1="30.2" x2="71.4" y2="35.9"/>
<circle class="st0" cx="43.8" cy="18.3" r="17.2"/>
<polyline class="st1" points="35.3,14.7 44.1,22.9 62.6,4.5 "/>
</svg>
