<?xml version="1.0" encoding="utf-8"?>
<!-- Generator: Adobe Illustrator 26.0.1, SVG Export Plug-In . SVG Version: 6.00 Build 0)  -->
<svg version="1.1" id="Capa_1" xmlns="http://www.w3.org/2000/svg" xmlns:xlink="http://www.w3.org/1999/xlink" x="0px" y="0px"
	 viewBox="0 0 89.6 93.3" style="enable-background:new 0 0 89.6 93.3;" xml:space="preserve">
<style type="text/css">
	.st0{fill:none;stroke:#616161;stroke-width:2.27;stroke-linecap:round;stroke-linejoin:round;}
	.st1{fill:none;stroke:#C19C5B;stroke-width:3.4;stroke-linecap:round;stroke-linejoin:round;}
</style>
<path class="st0" d="M38.5,4c-2.3-1.9-5.2-3-8.2-2.9C20.2,1.3,10.7,9.1,5.6,17.3c-3.5,5.6-6.2,13.2-3,19.5c0.4,0.8,0.9,1.6,1.5,2.3
	c3.6,4.4,11.3,4.1,16,2.5c6.6-2.5,12.2-6.9,16.2-12.6c3.4-4.9,6.4-11,6-17.1C42.1,8.8,40.7,6,38.5,4z"/>
<path class="st0" d="M43,62.3c-1.2-2.2-3.1-3.8-5.4-4.6c-7.8-2.9-17.5,0.2-23.9,5C9.3,65.9,5,70.9,5.6,76.7c0.1,0.7,0.2,1.5,0.4,2.2
	c1.4,4.5,7.4,6.6,11.5,6.7c5.8,0.1,11.5-1.6,16.3-4.8c4.1-2.7,8.2-6.6,9.7-11.4C44.3,67,44.1,64.5,43,62.3z"/>
<path class="st0" d="M7,80.8l3.2,6.3c0.7,1.4,1.9,2.5,3.3,3.2c6.2,3,13.4,1.9,19.5-0.9c4.1-1.8,7.6-4.6,10.3-8.1
	c1.1-1.6,2.1-3.3,2.8-5.1c0.6-1.6,0.6-3.4,0.1-5l-2.8-7.8"/>
<path class="st0" d="M62.2,33.3c2.4-1.1,5.2-1.3,7.7-0.5c8.7,2.6,14.9,11.6,17.3,19.9c1.7,5.7,2.1,12.9-2.2,17.5
	c-0.6,0.6-1.2,1.1-1.8,1.6c-4.2,2.9-10.7,0.8-14.3-1.8c-5-3.7-8.8-8.9-10.9-14.8c-1.8-5-2.8-11.1-1-16.2
	C57.9,36.5,59.8,34.4,62.2,33.3z"/>
<path class="st0" d="M81.1,72.9l-6.9,3.3c-1.5,0.7-3.3,1-4.9,0.6c-7.3-1.5-12.8-7.1-16.2-13.5c-2.3-4.2-3.6-9-3.6-13.8
	c0-2.1,0.3-4.2,0.9-6.2c0.5-1.8,1.7-3.4,3.2-4.4L61,34"/>
<path class="st0" d="M6.1,40.8l6.4,5.7c1.4,1.3,3.2,2,5.1,2.2c8.3,0.6,16-3.8,21.6-9.6c3.8-3.8,6.6-8.5,8.1-13.7
	c0.6-2.3,0.9-4.6,0.9-7c0-2.1-0.8-4.1-2.2-5.7l-6.6-7.6"/>
<path class="st1" d="M28.4,21.4c1.7-1.7,3.4-3.8,2.6-6.1c-0.9-2.1-3.2-3.3-5.4-2.6c-3.1,0.8-4.4,4.2-3.7,7.1c0.4,1.3,0.8,2.6,1,3.9
	c0.4,3.4-2.3,6.4-5.3,7.5c-0.8,0.3-1.6,0.5-2.4,0.4c-2.8-0.2-4-2.7-3.2-5.2c0.6-1.5,1.5-2.8,2.7-3.8"/>
<line class="st1" x1="34.1" y1="9.8" x2="30.2" y2="13.9"/>
<line class="st1" x1="12.8" y1="30.5" x2="9.3" y2="34.2"/>
<path class="st1" d="M30,72.6c1.8-0.8,3.8-1.9,3.9-3.9c0-1.9-1.5-3.5-3.4-3.7c-2.7-0.3-4.7,1.9-5,4.4c0,1.1-0.2,2.2-0.4,3.3
	c-0.8,2.7-3.7,4.2-6.3,4.2c-0.7,0-1.4-0.1-2-0.4c-2.1-1-2.2-3.2-0.9-5c0.9-0.9,2-1.7,3.2-2.1"/>
<line class="st1" x1="37.8" y1="65.4" x2="33.7" y2="67.4"/>
<line class="st1" x1="15.3" y1="74.9" x2="11.5" y2="76.7"/>
<path class="st1" d="M73.2,46.9c-1.1-1.9-2.6-3.8-4.8-3.6c-2,0.3-3.5,2.1-3.4,4.1c0,2.9,2.7,4.8,5.4,4.8c1.2-0.1,2.4-0.1,3.6-0.1
	c3,0.5,5,3.4,5.3,6.2c0.1,0.7,0.1,1.5-0.2,2.2C78.3,63,76,63.4,74,62.2c-1.1-0.8-2.1-1.9-2.8-3.2"/>
<line class="st1" x1="64.4" y1="39.5" x2="67" y2="43.7"/>
<line class="st1" x1="77.7" y1="62.5" x2="80.1" y2="66.3"/>
</svg>
