<?xml version="1.0" encoding="utf-8"?>
<!-- Generator: Adobe Illustrator 26.0.1, SVG Export Plug-In . SVG Version: 6.00 Build 0)  -->
<svg version="1.1" id="Capa_1" xmlns="http://www.w3.org/2000/svg" xmlns:xlink="http://www.w3.org/1999/xlink" x="0px" y="0px"
	 viewBox="0 0 30 29.8" style="enable-background:new 0 0 30 29.8;" xml:space="preserve">
<style type="text/css">
	.st0{fill:#FFFFFF;}
</style>
<path class="st0" d="M22.4,9.3c-0.3-0.8-1-1.5-1.8-1.8c-0.6-0.2-1.2-0.3-1.8-0.3c-1,0-1.3,0-3.8,0s-2.8,0-3.8,0
	c-0.6,0-1.2,0.1-1.8,0.3c-0.8,0.3-1.5,1-1.8,1.8c-0.2,0.6-0.3,1.2-0.3,1.8c0,1,0,1.3,0,3.8s0,2.8,0,3.8c0,0.6,0.1,1.2,0.3,1.8
	c0.1,0.4,0.4,0.8,0.7,1.1c0.3,0.3,0.7,0.6,1.1,0.7c0.6,0.2,1.2,0.3,1.8,0.3c1,0,1.3,0,3.8,0s2.8,0,3.8,0c0.6,0,1.2-0.1,1.8-0.3
	c0.4-0.1,0.8-0.4,1.1-0.7c0.3-0.3,0.6-0.7,0.7-1.1c0.2-0.6,0.3-1.2,0.3-1.8c0-1,0-1.3,0-3.8s0-2.8,0-3.8
	C22.7,10.5,22.6,9.9,22.4,9.3z M15,19.8c-2.7,0-4.8-2.2-4.8-4.9s2.2-4.8,4.9-4.8s4.8,2.2,4.8,4.8S17.7,19.8,15,19.8L15,19.8z M20,11
	c-0.6,0-1.1-0.5-1.1-1.1s0.5-1.1,1.1-1.1c0.6,0,1.1,0.5,1.1,1.1c0,0,0,0,0,0C21.1,10.5,20.6,11,20,11z M15-0.1c-8.3,0-15,6.7-15,15
	s6.7,15,15,15s15-6.7,15-15l0,0C30,6.6,23.3-0.1,15-0.1z M24.4,18.8c0,0.8-0.1,1.6-0.4,2.3c-0.5,1.3-1.5,2.3-2.8,2.8
	c-0.7,0.3-1.5,0.4-2.3,0.4c-1,0-1.3,0-3.9,0s-2.9,0-3.9,0c-0.8,0-1.6-0.2-2.3-0.4c-1.3-0.5-2.3-1.5-2.8-2.8
	c-0.3-0.7-0.4-1.5-0.4-2.3c0-1-0.1-1.3-0.1-3.9s0-2.9,0.1-3.9c0-0.8,0.2-1.6,0.4-2.3c0.2-0.6,0.6-1.2,1.1-1.7c0.5-0.5,1-0.8,1.7-1.1
	c0.7-0.3,1.5-0.4,2.3-0.4c1,0,1.3-0.1,3.9-0.1s2.9,0,3.9,0.1c0.8,0,1.6,0.2,2.3,0.4c0.6,0.2,1.2,0.6,1.7,1.1c0.5,0.5,0.9,1,1.1,1.6
	c0.3,0.7,0.4,1.5,0.4,2.3c0,1,0,1.3,0,3.9S24.4,17.8,24.4,18.8z M15,11.8c-1.7,0-3.1,1.4-3.1,3.2s1.4,3.2,3.1,3.2s3.2-1.4,3.2-3.2v0
	C18.2,13.2,16.8,11.8,15,11.8C15,11.8,15,11.8,15,11.8L15,11.8z"/>
</svg>
