<svg id="Capa_1" data-name="Capa 1" xmlns="http://www.w3.org/2000/svg" viewBox="0 0 259.05 52.62"><defs><style>.cls-1{fill:#575756;}</style></defs><path class="cls-1" d="M43.61,19H35c-2.3,0-4.64.86-4.64,7.28s2.34,7.28,4.64,7.28h8.58c2.29,0,4.64-.87,4.64-7.28S45.9,19,43.61,19ZM64.42,0H14.15A14.14,14.14,0,0,0,0,14.15V38.48A14.14,14.14,0,0,0,14.15,52.62H64.49A14.14,14.14,0,0,0,78.63,38.48V14.15A14.19,14.19,0,0,0,64.42,0ZM23.35,37.08H20.09V18.8H17.68V15.54h5.67Zm26.76-3.66a6.6,6.6,0,0,1-6.18,3.33H34.7a6.59,6.59,0,0,1-6.17-3.33,14.37,14.37,0,0,1-1.43-7.11,14.4,14.4,0,0,1,1.43-7.11,6.59,6.59,0,0,1,6.17-3.33h9.23a6.6,6.6,0,0,1,6.18,3.33,14.41,14.41,0,0,1,1.42,7.11A14.38,14.38,0,0,1,50.11,33.42Zm10.32,3.66H57.18V18.8H54.76V15.54h5.67Z"/><path class="cls-1" d="M108.15,24.47h0l-7.28,0A24.38,24.38,0,0,1,95.78,24c-1.2-.36-1.61-.81-1.61-2.77,0-1.56.43-2.28,1.64-2.74,1.47-.56,4.18-.67,7.79-.67a20.69,20.69,0,0,1,5.65.54c1.27.42,1.59.8,1.59,2.87v.62h3.45v-.3c0-2.9-.42-4-1.71-5.07-1.55-1.26-4-1.73-8.85-1.73-1.92,0-4.9.13-6.55.33-2.56.31-3.68.69-4.81,1.63a5.54,5.54,0,0,0-1.71,4.49c0,2.36.59,3.92,1.86,4.91s3.21,1.43,6.17,1.43c10.41,0,10.41,0,11.42.34.85.3,1.34.86,1.34,2.84,0,1.71-.6,2.67-1.82,2.93h0a36.94,36.94,0,0,1-6.79.48c-4.24,0-6.8-.15-7.59-.46s-1.1-.66-1.16-3.18v-.75H90.75l0,.28c0,.37,0,.86,0,1,0,2.79.51,4,2.1,5,1.39.85,3.3,1.11,8.21,1.11,6.45,0,9.61-.31,11.29-1.13h0c1.82-.94,2.66-2.7,2.66-5.54a6.54,6.54,0,0,0-1-3.9C112.93,25,111.35,24.47,108.15,24.47Zm57.94,6.44c0,1.85-.1,2.33-.4,2.8-.44.7-1.15.9-3.15.9s-3.14-.26-3.68-.93-.42-.54-.48-3.36V24.08h10.39V21.44H158.38V17.7h-2.94v3.74h-3.66v2.64h3.66v7c0,2.44.2,3.42.89,4.4.93,1.29,2.66,1.82,6,1.82a12.27,12.27,0,0,0,3.76-.45,3.72,3.72,0,0,0,2.11-1.54c.65-1,.85-2,.85-4.39V29.67h-2.94Zm-36.88-9.86h-6.74a5.07,5.07,0,0,0-4.76,2.62,11,11,0,0,0-1.08,5.4,11,11,0,0,0,1.08,5.4,5.06,5.06,0,0,0,4.76,2.62h6.74A5.07,5.07,0,0,0,134,34.47a11,11,0,0,0,1.08-5.4,11,11,0,0,0-1.08-5.4A5.07,5.07,0,0,0,129.21,21.05ZM129,34.16h-6.26c-1.6,0-3.09-.62-3.09-5.09S121.11,24,122.71,24H129c1.6,0,3.09.62,3.09,5.09S130.57,34.16,129,34.16Zm12-17.87c-1.17,1.09-1.44,2.85-1.46,5.15h-3.34v2.64h3.33v13h2.94v-13H150V21.44h-7.43l0-.2v0c0-1.79.19-2.58.75-3s1.95-.67,3.83-.7l2.83-.11V14.73l-3,.11C143.72,14.91,142.05,15.32,141,16.29Zm95.38,6.13c-1.05-.93-2.29-1.22-5.3-1.22s-4.18.15-5.1.62a4.29,4.29,0,0,0-1.5,1.15V21.4h-2.93V37.05h2.93V29.79c0-2.8.3-4.12,1.11-4.87s2.69-1,5.24-1c1.87,0,2.86.19,3.41.66s.75,1.26.75,2.85v1.37h3V26.9A5.69,5.69,0,0,0,236.37,22.42ZM192.65,34.13l-4.49-12.69h-4.11l-4.41,12.65L174,21.44h-3.28l7.13,15.65h3.87l4.43-12.54,4.49,12.54h3.89l7.17-15.65h-3.38Zm63.3-2c-.09,1-.15,1.14-.46,1.45h0c-.69.79-2,1-5.23,1-4.34,0-5.91-.27-6.75-1.14a5.15,5.15,0,0,1-1-3.37h16.55v-.3c-.07-3.68-.41-5.07-1.58-6.46h0c-1.44-1.64-3.27-2.08-8.5-2.08-3.71,0-5.39.24-6.65.95-2,1.13-2.95,3.33-2.95,7.11,0,3.21.73,5.34,2.23,6.51s3.63,1.46,8.92,1.46c3.18,0,5.18-.34,6.48-1.11s2-2.06,2-4v-.3h-3Zm-7-8.19c5.75,0,6.85.85,6.95,3.54H242.58C242.85,24.73,243.84,23.92,248.9,23.92ZM211,21.15h-1c-3.4,0-5.58.59-6.87,1.85a5,5,0,0,0-1.34,3.81v.47h2.87V26.8a2.23,2.23,0,0,1,.47-1.73c.67-.67,2.38-1,4.82-1h1c3.1.1,4.65.39,5.18,1h0c.36.37.53,1.22.54,2.64h-7.61c-2.8,0-4.66,0-5.89,1.29a4.73,4.73,0,0,0-1.09,3.48v.13a6.1,6.1,0,0,0,.44,2.47,3.29,3.29,0,0,0,2.52,1.82,24.59,24.59,0,0,0,4.71.29h1.15c3.8,0,5.84-.2,7.14-1.19a3.46,3.46,0,0,0,1.29-2.17,14.06,14.06,0,0,0,.17-2.79V31c0-.56,0-1.19,0-1.88,0-.44,0-.82,0-1.17,0-2.07-.23-3.69-1.33-4.87C216.89,21.61,214.67,21.27,211,21.15Zm5.6,9.82a18.07,18.07,0,0,1-.07,2c-.07.49-.18.63-.27.69a3.7,3.7,0,0,1-1.8.46c-.85.09-2,.13-3.6.14h-1a16.28,16.28,0,0,1-4.52-.31.52.52,0,0,1-.34-.36,4.44,4.44,0,0,1-.07-1v-.11c0-1.14.23-1.41.26-1.43h0s.27-.25,1.25-.34c.73-.07,1.69-.07,2.79-.08h7.36Z"/></svg>