<?xml version="1.0" encoding="utf-8"?>
<!-- Generator: Adobe Illustrator 26.0.1, SVG Export Plug-In . SVG Version: 6.00 Build 0)  -->
<svg version="1.1" id="Capa_1" xmlns="http://www.w3.org/2000/svg" xmlns:xlink="http://www.w3.org/1999/xlink" x="0px" y="0px"
	 viewBox="0 0 253.3 51.4" style="enable-background:new 0 0 253.3 51.4;" xml:space="preserve">
<style type="text/css">
	.st0{fill:#FFFFFF;}
</style>
<g>
	<path class="st0" d="M42.6,18.6h-8.4c-2.2,0-4.5,0.9-4.5,7.1s2.3,7.1,4.5,7.1h8.4c2.2,0,4.5-0.9,4.5-7.1S44.9,18.6,42.6,18.6z
		 M63,0H13.8C6.2,0,0,6.2,0,13.8l0,0v23.8c0,7.6,6.2,13.8,13.8,13.8H63c7.6,0,13.8-6.2,13.9-13.8l0,0V13.8C76.8,6.2,70.6,0,63,0z
		 M22.8,36.2h-3.2V18.4h-2.4v-3.2h5.5v21H22.8z M49,32.7c-1.2,2.1-3.5,3.4-6,3.3h-9c-2.5,0.2-4.8-1.1-6-3.3c-1.1-2.2-1.5-4.6-1.4-7
		c-0.1-2.4,0.3-4.8,1.4-7c1.2-2.1,3.5-3.4,6-3.3h9c2.5-0.1,4.8,1.1,6,3.3c1.1,2.2,1.5,4.6,1.4,7C50.5,28.1,50,30.5,49,32.7z
		 M59.1,36.2h-3.2V18.4h-2.4v-3.2H59L59.1,36.2z"/>
	<path class="st0" d="M105.7,23.9L105.7,23.9h-7.1c-1.7,0-3.4-0.1-5-0.4c-1.2-0.4-1.6-0.8-1.6-2.7c0-1.5,0.4-2.2,1.6-2.7
		c1.4-0.5,4.1-0.7,7.6-0.7c1.9-0.1,3.7,0.1,5.5,0.5c1.2,0.4,1.6,0.8,1.6,2.8v0.6h3.4V21c0-2.8-0.4-4-1.7-5c-1.5-1.2-3.8-1.7-8.7-1.7
		c-1.9,0-4.8,0.1-6.4,0.3c-2.5,0.3-3.6,0.7-4.7,1.6c-1.2,1.1-1.8,2.7-1.7,4.4c0,2.3,0.6,3.8,1.8,4.8s3.1,1.4,6,1.4
		c10.2,0,10.2,0,11.2,0.3c0.8,0.3,1.3,0.8,1.3,2.8c0,1.7-0.6,2.6-1.8,2.9l0,0c-2.2,0.4-4.4,0.5-6.7,0.5c-4.1,0-6.6-0.2-7.4-0.5
		s-1-0.6-1-3.1V29h-3.3v0.3c0,0.4,0,0.8,0,1c0,2.7,0.5,3.9,2,4.9c1.3,0.8,3.2,1.1,8,1.1c6.3,0,9.4-0.3,11-1.1l0,0
		c1.8-0.9,2.6-2.6,2.6-5.4c0.1-1.3-0.3-2.7-1-3.8C110.4,24.5,108.9,23.9,105.7,23.9z M162.4,30.2c0,1.8-0.1,2.3-0.4,2.7
		c-0.4,0.7-1.1,0.9-3.1,0.9s-3.1-0.3-3.6-0.9s-0.4-0.5-0.5-3.3v-6.1H165V21h-10.2v-3.7H152V21h-3.6v2.6h3.6v6.8
		c0,2.4,0.2,3.3,0.9,4.3c0.9,1.3,2.6,1.8,5.9,1.8c1.2,0,2.5-0.1,3.7-0.4c0.8-0.2,1.6-0.8,2.1-1.5c0.6-1,0.8-2,0.8-4.3V29h-2.9
		L162.4,30.2z M126.3,20.6h-6.6c-1.9-0.1-3.7,0.9-4.7,2.6c-0.8,1.6-1.2,3.5-1.1,5.3c-0.1,1.8,0.3,3.6,1.1,5.3
		c0.9,1.7,2.7,2.7,4.7,2.6h6.6c1.9,0.1,3.8-0.9,4.7-2.6c0.8-1.6,1.1-3.5,1-5.3c0.1-1.8-0.2-3.6-1-5.3
		C130.1,21.5,128.2,20.5,126.3,20.6z M126.1,33.4H120c-1.6,0-3-0.6-3-5s1.4-5,3-5h6.1c1.6,0,3,0.6,3,5S127.7,33.4,126.1,33.4z
		 M137.8,15.9c-1.1,1.1-1.4,2.8-1.4,5h-3.3v2.6h3.3v12.7h2.9V23.5h7.3V21h-7.3v-0.2c0-1.7,0.2-2.5,0.7-3s1.9-0.6,3.7-0.7l2.8-0.1
		v-2.6l-2.9,0.1C140.5,14.6,138.9,15,137.8,15.9L137.8,15.9z M231.1,21.9c-1-0.9-2.2-1.2-5.2-1.2s-4.1,0.1-5,0.6
		c-0.6,0.3-1.1,0.6-1.5,1.1v-1.6h-2.9v15.3h2.9V29c0-2.7,0.3-4,1.1-4.8s2.6-1,5.1-1c1.8,0,2.8,0.2,3.3,0.6s0.7,1.2,0.7,2.8v1.3h2.9
		v-1.8C232.8,24.7,232.2,23.1,231.1,21.9L231.1,21.9z M188.3,33.4L183.9,21h-4l-4.3,12.4L170.1,21h-3.2l7,15.3h3.8L182,24l4.4,12.3
		h3.8l7-15.3h-3.3L188.3,33.4z M250.2,31.4c-0.1,0.9-0.1,1.1-0.4,1.4l0,0c-0.7,0.8-1.9,1-5.1,1c-4.2,0-5.8-0.3-6.6-1.1
		c-0.7-0.9-1.1-2.1-1-3.3h16.2v-0.3c-0.1-3.6-0.4-5-1.5-6.3l0,0c-1.4-1.6-3.2-2-8.3-2c-3.6,0-5.3,0.2-6.5,0.9c-2,1.1-2.9,3.2-2.9,7
		c0,3.1,0.7,5.2,2.2,6.4s3.6,1.4,8.7,1.4c3.1,0,5.1-0.3,6.3-1.1c1.4-0.8,2.1-2.3,2-3.9v-0.3h-3L250.2,31.4z M243.3,23.4
		c5.6,0,6.7,0.8,6.8,3.5h-13C237.4,24.2,238.4,23.4,243.3,23.4L243.3,23.4z M206.3,20.7L206.3,20.7h-1c-3.3,0-5.5,0.6-6.7,1.8
		c-0.9,1-1.4,2.4-1.3,3.7v0.5h2.8v-0.5c-0.1-0.6,0.1-1.2,0.5-1.7c0.7-0.6,2.3-1,4.7-1h0.9c3,0.1,4.6,0.4,5.1,1l0,0
		c0.4,0.4,0.5,1.2,0.5,2.6h-7.4c-2.7,0-4.6,0-5.8,1.3c-0.8,0.9-1.2,2.2-1.1,3.4v0.1c0,0.8,0.1,1.6,0.4,2.4c0.5,1,1.4,1.6,2.5,1.8
		c1.5,0.2,3.1,0.3,4.6,0.3h1.1c3.7,0,5.7-0.2,7-1.2c0.7-0.5,1.1-1.3,1.3-2.1c0.1-0.9,0.2-1.8,0.2-2.7l0,0c0-0.5,0-1.2,0-1.8
		c0-0.4,0-0.8,0-1.1c0-2-0.2-3.6-1.3-4.8C212,21.1,209.9,20.8,206.3,20.7L206.3,20.7z M211.8,30.3c0,0.7,0,1.3-0.1,2
		c-0.1,0.5-0.2,0.6-0.3,0.7c-0.5,0.3-1.2,0.4-1.8,0.5c-0.8,0.1-1.9,0.1-3.5,0.1h-1c-1.5,0.1-3,0-4.4-0.3c-0.2-0.1-0.3-0.2-0.3-0.3
		c-0.1-0.3-0.1-0.7-0.1-1v-0.1c0-1.1,0.2-1.4,0.3-1.4l0,0c0,0,0.3-0.2,1.2-0.3c0.7-0.1,1.6-0.1,2.7-0.1h7.2L211.8,30.3z"/>
</g>
</svg>
