<?xml version="1.0" encoding="utf-8"?>
<!-- Generator: Adobe Illustrator 26.0.1, SVG Export Plug-In . SVG Version: 6.00 Build 0)  -->
<svg version="1.1" id="Capa_1" xmlns="http://www.w3.org/2000/svg" xmlns:xlink="http://www.w3.org/1999/xlink" x="0px" y="0px"
	 viewBox="0 0 115.3 27.2" style="enable-background:new 0 0 115.3 27.2;" xml:space="preserve">
<style type="text/css">
	.st0{fill:#252525;}
	.st1{fill:#14387F;}
	.st2{fill:#FFFFFF;}
</style>
<g>
	<g>
		<g>
			<g>
				<g>
					<path class="st1" d="M22.5,9.8h-4.4c-1.2,0-2.4,0.4-2.4,3.8c0,3.3,1.2,3.8,2.4,3.8h4.4c1.2,0,2.4-0.4,2.4-3.8
						C24.9,10.3,23.7,9.8,22.5,9.8z M33.3,0h-26C3.3,0,0,3.3,0,7.3v12.6c0,4,3.3,7.3,7.3,7.3h26c4,0,7.3-3.3,7.3-7.3V7.3
						C40.6,3.3,37.3,0,33.3,0z M12,19.2h-1.7V9.7H9.1V8H12V19.2z M25.9,17.3c-0.7,1.1-1.7,1.7-3.2,1.7h-4.8c-1.5,0-2.5-0.6-3.2-1.7
						c-0.5-0.9-0.7-2.1-0.7-3.7c0-1.6,0.2-2.8,0.7-3.7c0.7-1.1,1.7-1.7,3.2-1.7h4.8c1.5,0,2.5,0.6,3.2,1.7c0.5,0.9,0.7,2.1,0.7,3.7
						C26.6,15.2,26.4,16.4,25.9,17.3z M31.2,19.2h-1.7V9.7h-1.2V8h2.9V19.2z"/>
					<path class="st1" d="M67.3,11.1c-1.4,0-2.2,0.1-2.8,0.3c-0.5,0.2-0.8,0.4-1.1,0.7v-0.9h-1.6v8h1.6v-3.7c0-1.4,0.1-1.8,0.4-2.2
						l0,0c0.5-0.6,1.4-0.8,3.3-0.8c1.6,0,2.4,0.2,2.7,0.6l0,0c0.3,0.4,0.4,0.8,0.4,2.1v4h1.5v-4.5c0-1.5-0.2-2.2-0.7-2.7
						C70.5,11.4,69.6,11.1,67.3,11.1z M58.8,9.6h1.5V7.8h-1.5V9.6z M46.7,19.3h1.8v-5H57v-1.6h-8.5V9.5h8.9V7.8H46.7V19.3z
						 M58.8,19.3h1.5v-8h-1.5V19.3z M102.7,16.3c0,1.3-0.4,1.7-2.9,1.7c-1.6,0-2.5-0.1-3-0.3l0,0c-0.6-0.3-0.9-1-0.9-2.3
						c0-1.3,0.2-1.9,0.6-2.3c0.4-0.4,1.2-0.5,2.8-0.5c2.9,0,3.3,0.4,3.4,1.6l0,0.2h1.6l0-0.2c-0.1-1.1-0.2-1.6-0.7-2.1
						c-0.7-0.7-1.7-0.9-4.2-0.9c-1.9,0-2.8,0.1-3.5,0.5c-1,0.6-1.5,1.7-1.5,3.6c0,1.6,0.4,2.7,1.1,3.3c0.7,0.6,1.8,0.8,4.6,0.8
						c2,0,2.9-0.2,3.6-0.9c0.5-0.5,0.7-1.1,0.7-2.2l0-0.2h-1.6L102.7,16.3z M79.7,16.1c0,0.9-0.1,1.2-0.2,1.4
						c-0.2,0.4-0.6,0.5-1.6,0.5c-1.1,0-1.6-0.1-1.9-0.5c-0.2-0.3-0.2-0.3-0.2-1.7l0,0v-3.2h5.4v-1.4h-5.4V9.3h-1.6v1.9h-1.9v1.4h1.9
						v3.6c0,1.2,0.1,1.8,0.5,2.3c0.5,0.7,1.4,0.9,3.1,0.9c0.9,0,1.5-0.1,2-0.2c0.5-0.2,0.9-0.4,1.1-0.8c0.3-0.5,0.4-1,0.4-2.3v-0.7
						h-1.5V16.1z M114.6,12c-0.6-0.7-1.6-0.9-3.8-0.9c-1.3,0-2.2,0.1-2.8,0.3c-0.5,0.2-0.8,0.4-1.1,0.7V7.8h-1.5v11.4h1.5v-3.8
						c0-1.4,0.1-1.7,0.4-2.2l0,0c0.5-0.6,1.4-0.8,3.3-0.8c1.6,0,2.3,0.2,2.7,0.6c0.3,0.4,0.4,0.8,0.4,2.4v3.8h1.5v-4.2
						C115.3,13.2,115.2,12.6,114.6,12z M92.8,15.5c0-1.9-0.2-2.6-0.8-3.3l0,0c-0.8-0.8-1.7-1.1-4.4-1.1c-1.9,0-2.8,0.1-3.5,0.5
						c-1.1,0.6-1.5,1.7-1.5,3.7c0,1.6,0.4,2.7,1.2,3.3c0.7,0.6,1.9,0.8,4.6,0.8c1.7,0,2.7-0.2,3.4-0.6c0.7-0.4,1-1.1,1.1-2.1l0-0.2
						h-1.6l0,0.2c0,0.5-0.1,0.6-0.2,0.7l0,0c-0.4,0.4-1,0.5-2.7,0.5c-2.2,0-3.1-0.1-3.5-0.6c-0.3-0.3-0.5-0.8-0.5-1.7h8.6L92.8,15.5
						z M84.3,14.3c0.1-1.4,0.7-1.8,3.3-1.8c3,0,3.5,0.4,3.6,1.8H84.3z"/>
				</g>
			</g>
		</g>
	</g>
</g>
</svg>
