<?xml version="1.0" encoding="utf-8"?>
<!-- Generator: Adobe Illustrator 26.0.1, SVG Export Plug-In . SVG Version: 6.00 Build 0)  -->
<svg version="1.1" id="Capa_1" xmlns="http://www.w3.org/2000/svg" xmlns:xlink="http://www.w3.org/1999/xlink" x="0px" y="0px"
	 viewBox="0 0 268 63.4" style="enable-background:new 0 0 268 63.4;" xml:space="preserve">
<style type="text/css">
	.st0{fill:#FFFFFF;}
</style>
<path class="st0" d="M115.9,58.2c0,1.8-1.3,2.9-3.5,2.9h-1.6v2.2H109v-8h3.4C114.6,55.3,115.9,56.4,115.9,58.2z M114.1,58.2
	c0-0.9-0.6-1.4-1.7-1.4h-1.5v2.8h1.5C113.5,59.6,114.1,59,114.1,58.2z"/>
<path class="st0" d="M124,61.5h-3.7l-0.7,1.7h-1.9l3.6-8h1.8l3.6,8h-1.9L124,61.5z M123.4,60.1l-1.3-3l-1.3,3H123.4z"/>
<path class="st0" d="M128.8,62.5l0.6-1.4c0.8,0.5,1.7,0.8,2.6,0.8c1.1,0,1.5-0.4,1.5-0.9c0-1.5-4.6-0.5-4.6-3.4
	c0-1.4,1.1-2.5,3.4-2.5c1,0,1.9,0.2,2.8,0.7l-0.6,1.4c-0.7-0.4-1.4-0.6-2.2-0.6c-1.1,0-1.5,0.4-1.5,0.9c0,1.5,4.6,0.5,4.6,3.4
	c0,1.3-1.1,2.5-3.4,2.5C130.9,63.4,129.8,63.1,128.8,62.5z"/>
<path class="st0" d="M143.9,61.5h-3.7l-0.7,1.7h-1.9l3.6-8h1.9l3.6,8h-1.9L143.9,61.5z M143.3,60.1l-1.3-3l-1.3,3H143.3z"/>
<path class="st0" d="M154.4,63.3l-1.5-2.3h-1.7v2.2h-1.8v-8h3.4c2.1,0,3.5,1.1,3.5,2.9c0,1.1-0.6,2.1-1.6,2.5l1.8,2.6L154.4,63.3z
	 M152.6,56.8h-1.5v2.8h1.5c1.1,0,1.7-0.5,1.7-1.4S153.8,56.8,152.6,56.8z"/>
<path class="st0" d="M165.7,61.8v1.5h-6.2v-8h6v1.5h-4.2v1.8h3.7v1.4h-3.7v1.8H165.7z"/>
<path class="st0" d="M169.1,55.3h1.9v6.5h4v1.5h-5.8L169.1,55.3z"/>
<path class="st0" d="M183.3,61.5h-3.7l-0.7,1.7H177l3.6-8h1.8l3.6,8H184L183.3,61.5z M182.7,60.1l-1.3-3l-1.3,3H182.7z"/>
<path class="st0" d="M194.2,55.2h3.3c2.2-0.1,4.1,1.6,4.2,3.8c0.1,2.2-1.6,4.1-3.8,4.2c-0.1,0-0.3,0-0.4,0h-3.3V55.2z M197.4,62.5
	c1.8,0.1,3.4-1.3,3.5-3.1c0.1-1.8-1.3-3.4-3.1-3.5c0,0,0,0-0.1,0h-2.8v6.6H197.4z"/>
<path class="st0" d="M211.4,62.5v0.7h-5.7v-8.1h5.6v0.7h-4.7v2.9h4.2v0.7h-4.2v3H211.4z"/>
<path class="st0" d="M226.7,58c0,1.7-1.2,2.8-3.3,2.8h-2.2v2.5h-0.9v-8.1h3C225.5,55.2,226.7,56.2,226.7,58z M225.9,58
	c0-1.3-0.9-2-2.5-2h-2.1v4h2.1C225,60,225.9,59.2,225.9,58z"/>
<path class="st0" d="M235.2,61.1h-4.5l-1,2.2h-0.9l3.7-8.1h0.8l3.7,8.1h-0.9L235.2,61.1z M234.9,60.4l-1.9-4.3l-1.9,4.3H234.9z"/>
<path class="st0" d="M245.9,59.2h0.8v3.1c-0.8,0.7-1.9,1-3,1c-2.3,0.1-4.2-1.6-4.3-3.9c-0.1-2.3,1.6-4.2,3.9-4.3h0.4
	c1.1,0,2.2,0.4,3,1.2l-0.5,0.5c-1.3-1.4-3.5-1.4-4.8-0.2s-1.4,3.5-0.2,4.8c0.7,0.7,1.6,1.1,2.5,1.1c0.8,0,1.5-0.2,2.1-0.6
	L245.9,59.2z"/>
<path class="st0" d="M250.4,59.2c-0.1-2.3,1.8-4.3,4.1-4.4c2.3-0.1,4.3,1.8,4.4,4.1c0.1,2.3-1.8,4.3-4.1,4.4h-0.1
	c-2.2,0.1-4.1-1.6-4.2-3.9c0,0,0,0,0,0V59.2z M258.1,59.2c0-1.9-1.5-3.4-3.4-3.4c-1.9,0-3.4,1.5-3.4,3.4c0,1.9,1.5,3.4,3.3,3.4h0.1
	c1.8,0.1,3.3-1.4,3.4-3.2c0,0,0,0,0,0V59.2z"/>
<path class="st0" d="M262,62.3l0.3-0.7c0.7,0.6,1.7,1,2.7,1c1.5,0,2.2-0.6,2.2-1.4c0-2.2-5-0.9-5-3.8c0-1.2,0.9-2.2,3-2.2
	c0.9,0,1.8,0.2,2.5,0.7l-0.3,0.7c-0.7-0.4-1.4-0.7-2.2-0.7c-1.5,0-2.1,0.7-2.1,1.5c0,2.2,5,0.9,5,3.8c0,1.2-0.9,2.2-3,2.2
	C263.9,63.4,262.8,63,262,62.3z"/>
<path class="st0" d="M52.3,22.9H42c-2.8,0-5.6,1-5.6,8.8s2.8,8.7,5.6,8.7h10.3c2.8,0,5.6-1,5.6-8.8S55.1,22.9,52.3,22.9z M77.4,0H17
	C7.6,0,0,7.6,0,17v29.2c0,9.4,7.6,17,17,17h60.4c9.4,0,17-7.6,17-17V17C94.4,7.6,86.8,0,77.4,0z M28,44.6h-3.9v-22h-2.9v-3.9H28
	V44.6z M60.2,40.2c-1.5,2.7-4,4-7.4,4H41.6c-3.4,0-5.9-1.3-7.4-4c-1.2-2-1.7-4.8-1.7-8.5s0.6-6.5,1.7-8.5c1.5-2.7,4-4,7.4-4h11.1
	c3.4,0,5.9,1.3,7.4,4c1.2,2,1.7,4.8,1.7,8.5S61.3,38.1,60.2,40.2L60.2,40.2z M72.6,44.6h-3.9v-22h-2.9v-3.9h6.8L72.6,44.6z"/>
<path class="st0" d="M156.3,25.9c-2.1-0.1-4.3,0.1-6.4,0.6c-1,0.3-1.9,0.9-2.5,1.7v-2.1h-3.6v18.7h3.6v-8.7c0-3.3,0.1-4.1,1-5l0,0
	c1.1-1.4,3.3-1.9,7.6-1.9c3.8,0,5.5,0.4,6.3,1.4l0,0c0.7,0.8,0.9,1.8,0.9,5v9.2h3.6V34.3c0-3.4-0.4-5-1.6-6.3
	C163.8,26.4,161.6,25.9,156.3,25.9z M136.6,22.4h3.6v-4.1h-3.6V22.4z M108.4,44.8h4.2V33.2h19.8v-3.8h-19.8V22h20.8v-3.8h-25
	L108.4,44.8z M136.6,44.8h3.6V26.1h-3.6V44.8z M238.5,37.9c-0.1,3.1-0.9,3.8-6.8,3.8c-3.7,0-5.8-0.2-6.9-0.7l0,0
	c-1.5-0.7-2.1-2.3-2.1-5.3s0.4-4.5,1.4-5.4s2.8-1.2,6.4-1.2c6.7,0,7.7,0.8,7.8,3.8v0.4h3.7v-0.4c-0.1-2.5-0.6-3.8-1.6-4.9
	c-1.5-1.6-4-2.1-9.9-2.1c-4.4,0-6.5,0.3-8.1,1.2c-2.4,1.3-3.5,4-3.5,8.4c0,3.8,0.9,6.3,2.6,7.8s4.1,1.8,10.7,1.8
	c4.7,0,6.8-0.5,8.3-2.1c1.1-1.2,1.6-2.5,1.6-5v-0.4h-3.7L238.5,37.9z M185.2,37.4c0,2.2-0.1,2.8-0.5,3.3c-0.5,0.8-1.4,1.1-3.8,1.1
	s-3.8-0.3-4.4-1.1c-0.5-0.6-0.5-0.6-0.6-4v-7.4h12.5v-3.2H176v-4.5h-3.6v4.4H168v3.2h4.4v8.3c0,2.9,0.2,4.1,1.1,5.3
	c1.1,1.5,3.2,2.2,7.2,2.2c1.5,0.1,3.1-0.1,4.5-0.5c1-0.3,1.9-1,2.6-1.8c0.8-1.2,1-2.4,1-5.2v-1.5h-3.6L185.2,37.4z M266.2,27.9
	c-1.5-1.6-3.7-2.1-8.8-2.1c-2.2-0.1-4.3,0.1-6.4,0.6c-1,0.3-1.9,0.9-2.5,1.7v-9.9h-3.6v26.6h3.6V36c0-3.3,0.1-4,1-5l0,0
	c1.1-1.3,3.4-1.8,7.5-1.8c3.7,0,5.4,0.4,6.3,1.4s0.9,1.8,0.9,5.5v8.8h3.6v-9.7C267.8,30.7,267.5,29.3,266.2,27.9L266.2,27.9z
	 M215.7,36.1c-0.1-4.4-0.5-6-1.9-7.7l0,0c-1.8-2-4-2.5-10.3-2.5c-4.5,0-6.5,0.3-8,1.1c-2.5,1.4-3.6,4-3.6,8.5c0,3.8,0.9,6.4,2.7,7.8
	c1.6,1.3,4.4,1.7,10.7,1.7c3.8,0,6.2-0.4,7.8-1.3s2.4-2.5,2.5-4.8v-0.4h-3.7v0.3c-0.1,1.1-0.2,1.3-0.5,1.7l0,0
	c-0.8,0.9-2.4,1.2-6.3,1.2c-5.2,0-7.1-0.3-8.1-1.3c-0.7-0.8-1.1-2-1.2-4h19.9V36.1z M195.8,33.3c0.3-3.2,1.5-4.1,7.6-4.1
	c6.9,0,8.2,1,8.4,4.1H195.8z"/>
</svg>
