<svg id="Capa_1" data-name="Capa 1" xmlns="http://www.w3.org/2000/svg" viewBox="0 0 268 63.4"><defs><style>.cls-1{fill:#575756;}</style></defs><g id="Capa_1-2" data-name="Capa 1"><path class="cls-1" d="M115.9,58.2c0,1.8-1.3,2.9-3.5,2.9h-1.6v2.2H109v-8h3.4C114.6,55.3,115.9,56.4,115.9,58.2Zm-1.8,0c0-.9-.6-1.4-1.7-1.4h-1.5v2.8h1.5C113.5,59.6,114.1,59,114.1,58.2Z"/><path class="cls-1" d="M124,61.5h-3.7l-.7,1.7h-1.9l3.6-8h1.8l3.6,8h-1.9Zm-.6-1.4-1.3-3-1.3,3Z"/><path class="cls-1" d="M128.8,62.5l.6-1.4a5,5,0,0,0,2.6.8c1.1,0,1.5-.4,1.5-.9,0-1.5-4.6-.5-4.6-3.4,0-1.4,1.1-2.5,3.4-2.5a5.55,5.55,0,0,1,2.8.7l-.6,1.4a4.28,4.28,0,0,0-2.2-.6c-1.1,0-1.5.4-1.5.9,0,1.5,4.6.5,4.6,3.4,0,1.3-1.1,2.5-3.4,2.5A6.2,6.2,0,0,1,128.8,62.5Z"/><path class="cls-1" d="M143.9,61.5h-3.7l-.7,1.7h-1.9l3.6-8h1.9l3.6,8h-1.9Zm-.6-1.4-1.3-3-1.3,3Z"/><path class="cls-1" d="M154.4,63.3,152.9,61h-1.7v2.2h-1.8v-8h3.4c2.1,0,3.5,1.1,3.5,2.9a2.64,2.64,0,0,1-1.6,2.5l1.8,2.6Zm-1.8-6.5h-1.5v2.8h1.5c1.1,0,1.7-.5,1.7-1.4S153.8,56.8,152.6,56.8Z"/><path class="cls-1" d="M165.7,61.8v1.5h-6.2v-8h6v1.5h-4.2v1.8H165V60h-3.7v1.8Z"/><path class="cls-1" d="M169.1,55.3H171v6.5h4v1.5h-5.8Z"/><path class="cls-1" d="M183.3,61.5h-3.7l-.7,1.7H177l3.6-8h1.8l3.6,8h-2Zm-.6-1.4-1.3-3-1.3,3Z"/><path class="cls-1" d="M194.2,55.2h3.3a4,4,0,0,1,.4,8h-3.7Zm3.2,7.3a3.31,3.31,0,1,0,.4-6.6h-2.9v6.6Z"/><path class="cls-1" d="M211.4,62.5v.7h-5.7V55.1h5.6v.7h-4.7v2.9h4.2v.7h-4.2v3h4.8Z"/><path class="cls-1" d="M226.7,58c0,1.7-1.2,2.8-3.3,2.8h-2.2v2.5h-.9V55.2h3C225.5,55.2,226.7,56.2,226.7,58Zm-.8,0c0-1.3-.9-2-2.5-2h-2.1v4h2.1C225,60,225.9,59.2,225.9,58Z"/><path class="cls-1" d="M235.2,61.1h-4.5l-1,2.2h-.9l3.7-8.1h.8l3.7,8.1h-.9Zm-.3-.7L233,56.1l-1.9,4.3Z"/><path class="cls-1" d="M245.9,59.2h.8v3.1a4.53,4.53,0,0,1-3,1,4.1,4.1,0,0,1-.4-8.2h.4a4.23,4.23,0,0,1,3,1.2l-.5.5a3.45,3.45,0,0,0-4.8-.2,3.54,3.54,0,0,0-.2,4.8,3.58,3.58,0,0,0,2.5,1.1,3.7,3.7,0,0,0,2.1-.6Z"/><path class="cls-1" d="M250.4,59.2a4.25,4.25,0,1,1,4.4,4.1h-.1a4,4,0,0,1-4.2-3.9h0v-.2Zm7.7,0a3.4,3.4,0,1,0-3.5,3.4h.1a3.33,3.33,0,0,0,3.4-3.2h0v-.2Z"/><path class="cls-1" d="M262,62.3l.3-.7a4.27,4.27,0,0,0,2.7,1c1.5,0,2.2-.6,2.2-1.4,0-2.2-5-.9-5-3.8,0-1.2.9-2.2,3-2.2a4.3,4.3,0,0,1,2.5.7l-.3.7a4.39,4.39,0,0,0-2.2-.7c-1.5,0-2.1.7-2.1,1.5,0,2.2,5,.9,5,3.8,0,1.2-.9,2.2-3,2.2A4.69,4.69,0,0,1,262,62.3Z"/><path class="cls-1" d="M52.3,22.9H42c-2.8,0-5.6,1-5.6,8.8s2.8,8.7,5.6,8.7H52.3c2.8,0,5.6-1,5.6-8.8S55.1,22.9,52.3,22.9ZM77.4,0H17A17,17,0,0,0,0,17V46.2a17,17,0,0,0,17,17H77.4a17,17,0,0,0,17-17V17A17,17,0,0,0,77.4,0ZM28,44.6H24.1v-22H21.2V18.7H28Zm32.2-4.4c-1.5,2.7-4,4-7.4,4H41.6c-3.4,0-5.9-1.3-7.4-4-1.2-2-1.7-4.8-1.7-8.5a17.73,17.73,0,0,1,1.7-8.5c1.5-2.7,4-4,7.4-4H52.7c3.4,0,5.9,1.3,7.4,4,1.2,2,1.7,4.8,1.7,8.5s-.5,6.4-1.6,8.5Zm12.4,4.4H68.7v-22H65.8V18.7h6.8Z"/><path class="cls-1" d="M156.3,25.9a23.17,23.17,0,0,0-6.4.6,4.89,4.89,0,0,0-2.5,1.7V26.1h-3.6V44.8h3.6V36.1c0-3.3.1-4.1,1-5h0c1.1-1.4,3.3-1.9,7.6-1.9,3.8,0,5.5.4,6.3,1.4h0c.7.8.9,1.8.9,5v9.2h3.6V34.3c0-3.4-.4-5-1.6-6.3C163.8,26.4,161.6,25.9,156.3,25.9Zm-19.7-3.5h3.6V18.3h-3.6ZM108.4,44.8h4.2V33.2h19.8V29.4H112.6V22h20.8V18.2h-25Zm28.2,0h3.6V26.1h-3.6Zm101.9-6.9c-.1,3.1-.9,3.8-6.8,3.8-3.7,0-5.8-.2-6.9-.7h0c-1.5-.7-2.1-2.3-2.1-5.3s.4-4.5,1.4-5.4,2.8-1.2,6.4-1.2c6.7,0,7.7.8,7.8,3.8v.4H242v-.4c-.1-2.5-.6-3.8-1.6-4.9-1.5-1.6-4-2.1-9.9-2.1-4.4,0-6.5.3-8.1,1.2-2.4,1.3-3.5,4-3.5,8.4,0,3.8.9,6.3,2.6,7.8s4.1,1.8,10.7,1.8c4.7,0,6.8-.5,8.3-2.1,1.1-1.2,1.6-2.5,1.6-5v-.4h-3.7Zm-53.3-.5c0,2.2-.1,2.8-.5,3.3-.5.8-1.4,1.1-3.8,1.1s-3.8-.3-4.4-1.1c-.5-.6-.5-.6-.6-4V29.3h12.5V26.1H176V21.6h-3.6V26H168v3.2h4.4v8.3c0,2.9.2,4.1,1.1,5.3,1.1,1.5,3.2,2.2,7.2,2.2a13.55,13.55,0,0,0,4.5-.5,5.84,5.84,0,0,0,2.6-1.8c.8-1.2,1-2.4,1-5.2V36h-3.6Zm81-9.5c-1.5-1.6-3.7-2.1-8.8-2.1a22.81,22.81,0,0,0-6.4.6,4.89,4.89,0,0,0-2.5,1.7V18.2h-3.6V44.8h3.6V36c0-3.3.1-4,1-5h0c1.1-1.3,3.4-1.8,7.5-1.8,3.7,0,5.4.4,6.3,1.4s.9,1.8.9,5.5v8.8h3.6V35.2c0-4.5-.3-5.9-1.6-7.3Zm-50.5,8.2c-.1-4.4-.5-6-1.9-7.7h0c-1.8-2-4-2.5-10.3-2.5-4.5,0-6.5.3-8,1.1-2.5,1.4-3.6,4-3.6,8.5q0,5.7,2.7,7.8c1.6,1.3,4.4,1.7,10.7,1.7,3.8,0,6.2-.4,7.8-1.3s2.4-2.5,2.5-4.8v-.4h-3.7v.3c-.1,1.1-.2,1.3-.5,1.7h0c-.8.9-2.4,1.2-6.3,1.2-5.2,0-7.1-.3-8.1-1.3a6.31,6.31,0,0,1-1.2-4h19.9v-.3Zm-19.9-2.8c.3-3.2,1.5-4.1,7.6-4.1,6.9,0,8.2,1,8.4,4.1Z"/></g></svg>