<svg xmlns="http://www.w3.org/2000/svg" viewBox="0 0 3181.02 334.18"><defs><style>.cls-1{isolation:isolate;}.cls-2{fill:#575756;mix-blend-mode:luminosity;opacity:0.35;}</style></defs><g class="cls-1"><g id="Capa_1" data-name="Capa 1"><path class="cls-2" d="M384.19,63.67H257.08c-34,0-68.78,12.79-68.78,107.93s34.77,107.86,68.78,107.86H384.19c34,0,68.78-12.86,68.78-107.86S418.2,63.67,384.19,63.67ZM84,331.11H35.79V60.23H0V12H84Zm396.54-54.25C461.8,309.69,431,326.32,389,326.32H252.25c-42,0-72.84-16.63-91.51-49.46-14.25-24.9-21.17-59.42-21.17-105.25,0-46,6.92-80.44,21.17-105.42,18.67-32.75,49.52-49.37,91.51-49.37H389c42,0,72.78,16.62,91.52,49.37,14.2,25,21.11,59.42,21.11,105.42C501.65,217.44,494.74,252,480.54,276.86Zm153,54.25H585.32V60.23H549.53V12h84Z"/><path class="cls-2" d="M945,144.22h0c-84.59-.49-84.63-.5-107.86-.49-35.07-.46-60.44-2.67-75.41-6.59-17.91-5.24-23.87-11.93-23.87-41.05,0-23.1,6.35-33.7,24.26-40.52,21.82-8.31,61.9-10,115.38-10,38.79,0,68.51,2.83,83.7,8,18.87,6.24,23.61,11.9,23.61,42.57v9.21H1036l0-4.44c-.49-42.93-6.19-59.79-25.38-75.15C987.71,7.09,952.17.16,879.44.16,851,.16,806.92,2,782.42,5c-37.9,4.55-54.54,10.18-71.23,24.12s-25.35,36.32-25.35,66.49c0,35,8.77,58.12,27.6,72.84,18.48,14.45,47.51,21.17,91.37,21.17,154.24,0,154.24,0,169.22,5.06,12.57,4.36,19.85,12.65,19.85,42.1,0,25.36-8.81,39.55-26.94,43.39l-.11,0c-17.45,4.19-58.86,7.11-100.71,7.11-62.83,0-100.67-2.33-112.49-6.93-13.26-5.14-16.2-9.76-17.16-47V222.28H687.14l-.33,4c-.46,5.52-.49,12.73-.49,14.81,0,41.41,7.54,59.52,31.07,74.56,20.54,12.69,49,16.56,121.65,16.56,95.55,0,142.47-4.72,167.35-16.83l.09-.05c26.92-13.89,39.46-39.93,39.46-82,0-25.41-4.63-43.82-14.54-57.87C1015.89,152.71,992.49,144.22,945,144.22Zm858.53,95.46c0,27.51-1.49,34.49-6,41.5-6.55,10.37-17,13.37-46.67,13.37-31.15,0-46.46-3.86-54.56-13.76-6.06-7.78-6.18-8-7.12-49.76V138.56h154V99.41h-154V44h-43.5V99.41h-54.2v39.15h54.2V242.08c0,36.08,3,50.7,13.18,65.21,13.75,19.1,39.44,26.89,88.67,26.89,24.38,0,42.06-2.08,55.63-6.54,14.2-4.67,24.13-11.95,31.23-22.87,9.68-14.47,12.63-29.68,12.63-65.09V221.32h-43.51ZM1257,93.63h-99.78c-32.38,0-56.14,13-70.6,38.76-10.77,19.14-16,45.34-16,80.1s5.24,60.9,16,80c14.45,25.76,38.2,38.82,70.6,38.82H1257c32.34,0,56.1-13.06,70.6-38.81,10.75-19.1,16-45.26,16-80s-5.22-60.94-16-80.11C1313.1,106.67,1289.35,93.63,1257,93.63Zm-3.52,194.22h-92.74c-23.78,0-45.78-9.13-45.78-75.36s22-75.42,45.78-75.42h92.74c23.77,0,45.78,9.13,45.78,75.42S1277.27,287.85,1253.5,287.85ZM1431.69,23.13c-17.35,16.05-21.47,42.12-21.78,76.29h-49.45v39.14h49.44V331.28h43.49V138.56h111.24V99.42h-110l.19-3V96.1c0-26.47,2.93-38.27,11.18-45.09,9.63-8,28.86-9.82,56.75-10.26l41.88-1.61V0L1520.2,1.61C1472.1,2.67,1447.28,8.71,1431.69,23.13ZM2845,113.87c-15.59-13.77-33.93-18-78.5-18-43.62,0-62,2.22-75.6,9.12a63.54,63.54,0,0,0-22.22,17.09V98.8h-43.49V330.66h43.49V223.16c0-41.5,4.46-61.08,16.43-72.25,13.74-12.81,39.87-15.39,77.59-15.39,27.72,0,42.35,2.84,50.5,9.79s11.18,18.69,11.18,42.19v20.3h44.45V180.27C2868.8,150.16,2860.78,127.82,2845,113.87ZM2197.11,287.48,2130.57,99.42h-60.9l-65.4,187.46L1920.2,99.42h-48.68l105.74,231.86h57.29l65.59-185.77,66.54,185.77h57.74L2330.64,99.42h-50.12Zm938-29.93c-1.4,14.17-2.24,16.77-6.85,21.45l-.17.19c-10.19,11.62-29,15.35-77.51,15.35-64.24,0-87.6-4-100-16.92-9-9.58-13.53-24.65-14.78-49.93H3181l-.08-4.47c-1-54.54-6-75.12-23.37-95.75l-.07-.08c-21.42-24.23-48.5-30.87-125.94-30.87-55,0-79.89,3.55-98.64,14.06-30.17,16.8-43.62,49.34-43.62,105.49,0,47.49,10.81,79,33,96.43,20.48,16.2,53.8,21.66,132,21.66,47.16,0,76.79-5.07,96.06-16.44,19.71-11.64,29.25-30.59,30-59.62l.12-4.51h-45.11Zm-104.5-121.4c85.27,0,101.54,12.57,103,52.4H2937C2941,148.09,2955.58,136.15,3030.6,136.15Zm-561-41h0c-5.24-.17-10.33-.25-15.14-.25-50.35,0-82.69,8.76-101.78,27.49-17.62,17.29-19.87,39.23-19.85,56.4v6.94h42.61v-6.94c0-13.69,1.88-20.63,7-25.61,9.87-9.86,35.21-15.28,71.42-15.28,4.63,0,9.48.06,14.45.22,46,1.38,69,5.71,76.83,14.48l.09.09c5.32,5.59,7.9,18.09,8.06,39.23-12.41-.06-31.35-.11-49.83-.11-18,0-31.76.05-39.66.15h-.63c-6.95.07-13.51.13-19.73.13l-3,0c-41.54.31-69,.51-87.28,19.13-11,11.33-16.12,27.73-16.1,51.63v1.95c.18,15.68,2.24,27.27,6.47,36.49,6.48,14.2,18.36,22.76,37.38,26.94,17.93,4,42.22,4.32,69.81,4.33l8.13,0q4.3,0,8.82,0c56.3-.27,86.5-3,105.82-17.72,10-7.68,16.29-18.19,19.16-32.12,2.5-12.07,2.52-25.62,2.55-41.32v-.76c0-8.28,0-17.65.35-27.85.2-6.55.29-12.21.29-17.3,0-30.68-3.33-54.7-19.6-72.2C2556.25,101.83,2523.33,96.85,2469.56,95.15Zm83,145.44c0,12.63-.09,22.83-1,29.75-1,7.28-2.69,9.33-3.93,10.28-1.8,1.42-8,4.93-26.71,6.84-12.57,1.32-29,1.94-53.38,2l-14.78,0c-35.85.05-58.29-.7-67-4.61-3.36-1.54-4.24-2.85-5-5.33-1-3.16-1.07-8.3-1.13-15.21v-1.73c-.08-16.83,3.44-20.79,3.85-21.19l.14-.15c.55-.6,4-3.65,18.58-4.95,10.81-1,25-1.11,41.4-1.2,5.89,0,12.12-.06,18.72-.11l1.91,0c8-.13,21.15-.13,35.11-.13,19.76,0,40.36,0,53.27.1C2552.59,236.9,2552.58,238.79,2552.58,240.59Z"/></g></g></svg>