<?xml version="1.0" encoding="utf-8"?>
<!-- Generator: Adobe Illustrator 26.0.1, SVG Export Plug-In . SVG Version: 6.00 Build 0)  -->
<svg version="1.1" id="Capa_1" xmlns="http://www.w3.org/2000/svg" xmlns:xlink="http://www.w3.org/1999/xlink" x="0px" y="0px"
	 viewBox="0 0 30 29.8" style="enable-background:new 0 0 30 29.8;" xml:space="preserve">
<style type="text/css">
	.st0{fill:#FFFFFF;}
</style>
<path class="st0" d="M15-0.1c-8.3,0-15,6.7-15,15s6.7,15,15,15s15-6.7,15-15l0,0C30,6.6,23.3-0.1,15-0.1z M24.6,19.7
	c-0.2,0.9-0.9,1.5-1.8,1.8c-1.6,0.4-7.8,0.4-7.8,0.4s-6.2,0-7.8-0.4c-0.9-0.2-1.5-0.9-1.8-1.8C5.1,18.1,5,16.5,5,14.9
	c0-1.6,0.1-3.2,0.4-4.8c0.2-0.9,0.9-1.5,1.8-1.8C8.8,7.9,15,7.9,15,7.9s6.2,0,7.8,0.4c0.9,0.2,1.5,0.9,1.8,1.8
	c0.3,1.6,0.4,3.2,0.4,4.8C25,16.5,24.9,18.1,24.6,19.7z M13,17.9l5.2-3l-5.2-3L13,17.9z"/>
</svg>
